<?xml version="1.0" encoding="UTF-8"?><svg xmlns="http://www.w3.org/2000/svg" xmlns:xlink="http://www.w3.org/1999/xlink" viewBox="0 0 186.1 197.3"><defs><style>.cls-1{fill:url(#linear-gradient-34);}.cls-1,.cls-2,.cls-3,.cls-4,.cls-5{mix-blend-mode:screen;}.cls-6{fill:url(#linear-gradient-15);}.cls-7{fill:url(#linear-gradient-28);}.cls-8{fill:#cfd8dc;}.cls-9{fill:url(#linear-gradient-13);}.cls-9,.cls-10,.cls-11,.cls-12,.cls-13,.cls-14{fill-rule:evenodd;}.cls-15{fill:url(#linear-gradient-2);}.cls-16{filter:url(#drop-shadow-2);}.cls-2{fill:url(#linear-gradient-33);}.cls-10{fill:url(#radial-gradient-9);}.cls-17{fill:url(#linear-gradient-25);}.cls-18{fill:#009245;opacity:.6;}.cls-19{fill:url(#linear-gradient-10);}.cls-20{fill:url(#linear-gradient-12);}.cls-21{fill:url(#linear-gradient-27);}.cls-22{fill:url(#radial-gradient-14);}.cls-23,.cls-11{fill:#fff;}.cls-24{fill:url(#radial-gradient-18);}.cls-3{fill:url(#radial-gradient-16);}.cls-25{fill:url(#linear-gradient-26);}.cls-26{fill:none;}.cls-27{fill:url(#linear-gradient-4);}.cls-28{fill:url(#radial-gradient-5);}.cls-29{fill:url(#linear-gradient-30);}.cls-30{fill:url(#radial-gradient);}.cls-31{fill:url(#radial-gradient-3);}.cls-32{fill:url(#linear-gradient-3);}.cls-33{clip-path:url(#clippath-1);}.cls-34{filter:url(#drop-shadow-1);}.cls-35{fill:url(#linear-gradient-5);}.cls-12{fill:url(#radial-gradient-10);}.cls-36{fill:url(#linear-gradient-22);}.cls-37{fill:url(#linear-gradient-24);}.cls-38{isolation:isolate;}.cls-39{fill:url(#radial-gradient-11);}.cls-40{fill:url(#linear-gradient-8);}.cls-41{fill:url(#radial-gradient-2);}.cls-42{fill:url(#linear-gradient-29);}.cls-13{fill:url(#radial-gradient-8);}.cls-43{fill:url(#linear-gradient-20);}.cls-44{fill:url(#radial-gradient-4);}.cls-45{fill:url(#linear-gradient-17);}.cls-46{fill:url(#linear-gradient-7);}.cls-47{fill:url(#linear-gradient-9);}.cls-48{fill:url(#linear-gradient-11);}.cls-49{fill:url(#linear-gradient-19);}.cls-50{fill:url(#radial-gradient-12);}.cls-51{fill:url(#radial-gradient-19);}.cls-52{fill:url(#linear-gradient-6);}.cls-53{fill:#ed342f;}.cls-54{fill:url(#radial-gradient-15);}.cls-55{fill:url(#linear-gradient-21);}.cls-56{fill:url(#radial-gradient-6);}.cls-14{fill:url(#linear-gradient-14);}.cls-57{fill:#bcddbf;}.cls-5{fill:url(#radial-gradient-17);}.cls-58{fill:url(#linear-gradient-32);}.cls-59{fill:url(#radial-gradient-7);}.cls-60{fill:url(#linear-gradient-16);}.cls-61{fill:url(#radial-gradient-13);}.cls-62{fill:url(#linear-gradient);}.cls-63{fill:url(#linear-gradient-23);}.cls-64{fill:url(#linear-gradient-31);}.cls-65{fill:url(#linear-gradient-18);}</style><linearGradient id="linear-gradient" x1="249.1" y1="343.2" x2="274.7" y2="343.2" gradientTransform="translate(-170.6 -231.6)" gradientUnits="userSpaceOnUse"><stop offset="0" stop-color="#27af55"/><stop offset=".9" stop-color="#007e3e"/></linearGradient><radialGradient id="radial-gradient" cx="90.3" cy="499.5" fx="90.3" fy="499.5" r="36.2" gradientTransform="translate(0 -273.4) scale(1 .8)" gradientUnits="userSpaceOnUse"><stop offset=".2" stop-color="#fff"/><stop offset=".4" stop-color="#fcfdfd"/><stop offset=".6" stop-color="#f4f8f8"/><stop offset=".7" stop-color="#e6f0f0"/><stop offset=".8" stop-color="#d3e4e4"/><stop offset=".9" stop-color="#bad5d6"/><stop offset="1" stop-color="#a4c8c9"/></radialGradient><linearGradient id="linear-gradient-2" x1="-41.6" y1="160.6" x2="-6.3" y2="160.6" gradientTransform="translate(110.6 -28.5) rotate(-1.9) scale(1 .9)" xlink:href="#linear-gradient"/><linearGradient id="linear-gradient-3" x1="45.1" y1="172.1" x2="45.1" y2="135.6" gradientTransform="translate(4 -21.4) rotate(-.2)" xlink:href="#linear-gradient"/><radialGradient id="radial-gradient-2" cx="4326.4" cy="6897.6" fx="4326.4" fy="6897.6" r="104.2" gradientTransform="translate(511.4 -1190.4) rotate(167.5) scale(.2 -.2)" xlink:href="#radial-gradient"/><linearGradient id="linear-gradient-4" x1="937" y1="130" x2="937" y2="96.1" gradientTransform="translate(1019.6 -187.7) rotate(167.3) scale(1 -1)" xlink:href="#linear-gradient"/><radialGradient id="radial-gradient-3" cx="-850" cy="7782.5" fx="-850" fy="7782.5" r="97.1" gradientTransform="translate(262.5 -1212.9) rotate(-.5) scale(.2)" xlink:href="#radial-gradient"/><filter id="drop-shadow-1" x="8.6" y="120.5" width="47.8" height="41.4" filterUnits="userSpaceOnUse"><feOffset dx="0" dy="0"/><feGaussianBlur result="blur" stdDeviation="2"/><feFlood flood-color="#00660a" flood-opacity=".8"/><feComposite in2="blur" operator="in"/><feComposite in="SourceGraphic"/></filter><linearGradient id="linear-gradient-5" x1="37.5" y1="159.5" x2="17.2" y2="132.7" gradientUnits="userSpaceOnUse"><stop offset="0" stop-color="#fff"/><stop offset="1" stop-color="#ceefe0"/></linearGradient><linearGradient id="linear-gradient-6" x1="43.2" y1="155.2" x2="22.8" y2="128.4" xlink:href="#linear-gradient-5"/><linearGradient id="linear-gradient-7" x1="37.5" y1="159.6" x2="17.1" y2="132.8" xlink:href="#linear-gradient-5"/><radialGradient id="radial-gradient-4" cx="304.5" cy="186.5" fx="304.5" fy="186.5" r="6.5" gradientTransform="translate(-152.5 -170.2) rotate(30.1)" gradientUnits="userSpaceOnUse"><stop offset="0" stop-color="#fff"/><stop offset="1" stop-color="#ceefe0"/></radialGradient><radialGradient id="radial-gradient-5" cx="307" cy="192.6" fx="307" fy="192.6" r="5.6" xlink:href="#radial-gradient-4"/><linearGradient id="linear-gradient-8" x1="325.9" y1="188.2" x2="325.9" y2="161.6" gradientTransform="translate(-152.5 -170.2) rotate(30.1)" xlink:href="#linear-gradient-5"/><filter id="drop-shadow-2" x="139" y="125.3" width="39.9" height="37.4" filterUnits="userSpaceOnUse"><feOffset dx="0" dy="0"/><feGaussianBlur result="blur-2" stdDeviation="2"/><feFlood flood-color="#00660a" flood-opacity=".8"/><feComposite in2="blur-2" operator="in"/><feComposite in="SourceGraphic"/></filter><linearGradient id="linear-gradient-9" x1="147.9" y1="152.2" x2="143.5" y2="138" xlink:href="#linear-gradient-5"/><linearGradient id="linear-gradient-10" x1="148.6" y1="159.3" x2="158.9" y2="139.6" xlink:href="#linear-gradient-5"/><linearGradient id="linear-gradient-11" x1="155.2" y1="162.7" x2="165.5" y2="143" xlink:href="#linear-gradient-5"/><linearGradient id="linear-gradient-12" x1="148.6" y1="159.2" x2="158.9" y2="139.6" xlink:href="#linear-gradient-5"/><radialGradient id="radial-gradient-6" cx="164.2" cy="150.9" fx="164.2" fy="150.9" r="5" gradientUnits="userSpaceOnUse"><stop offset="0" stop-color="#fff"/><stop offset="1" stop-color="#ceefe0"/></radialGradient><radialGradient id="radial-gradient-7" cx="164.2" cy="156.7" fx="164.2" fy="156.7" r="4.4" xlink:href="#radial-gradient-6"/><linearGradient id="linear-gradient-13" x1="-72.5" y1="-147" x2="-53.3" y2="-147" gradientTransform="translate(111.6 169) rotate(-1.7)" gradientUnits="userSpaceOnUse"><stop offset=".2" stop-color="#d8af41"/><stop offset=".4" stop-color="#dec05d"/><stop offset=".6" stop-color="#ece295"/><stop offset=".6" stop-color="#e8da8a"/><stop offset=".7" stop-color="#dfc46b"/><stop offset=".7" stop-color="#d9b556"/><stop offset=".7" stop-color="#d5ac49"/><stop offset=".8" stop-color="#d4a945"/><stop offset=".8" stop-color="#b68d41"/><stop offset="1" stop-color="#7d593b"/></linearGradient><linearGradient id="linear-gradient-14" x1="10" y1="-143.5" x2="26.4" y2="-143.5" xlink:href="#linear-gradient-13"/><radialGradient id="radial-gradient-8" cx="11368.3" cy="218.2" fx="11368.3" fy="218.2" r="33.4" gradientTransform="translate(11520.7 161.9) rotate(-178.4) scale(1 -1)" gradientUnits="userSpaceOnUse"><stop offset="0" stop-color="#49a84c"/><stop offset=".1" stop-color="#45a44a"/><stop offset=".2" stop-color="#399b46"/><stop offset=".4" stop-color="#268c40"/><stop offset=".5" stop-color="#0b7637"/><stop offset=".5" stop-color="#006e34"/></radialGradient><radialGradient id="radial-gradient-9" cx="-1340.7" cy="-18.6" fx="-1340.7" fy="-18.6" r="33.4" gradientTransform="translate(-1189.7 29.7) rotate(-177.9) scale(1 -1)" xlink:href="#radial-gradient-8"/><radialGradient id="radial-gradient-10" cx="1.8" cy="12.4" fx="1.8" fy="12.4" r="33.4" gradientTransform="translate(29.7 46.1) rotate(-.5)" xlink:href="#radial-gradient-8"/><radialGradient id="radial-gradient-11" cx="300.1" cy="213.7" fx="300.1" fy="213.7" r="124.4" gradientTransform="translate(-72.5 351.8) rotate(-87) scale(1 .7) skewX(0)" gradientUnits="userSpaceOnUse"><stop offset=".2" stop-color="#fff"/><stop offset=".4" stop-color="#fcfdfd"/><stop offset=".5" stop-color="#f4f8f8"/><stop offset=".6" stop-color="#e6f0f0"/><stop offset=".7" stop-color="#d3e4e4"/><stop offset=".8" stop-color="#bad5d6"/><stop offset=".8" stop-color="#a4c8c9"/></radialGradient><clipPath id="clippath-1"><ellipse class="cls-26" cx="91.4" cy="29.3" rx="33.3" ry="21.6"/></clipPath><radialGradient id="radial-gradient-12" cx="92.3" cy="11.3" fx="92.3" fy="11.3" r="12.6" gradientUnits="userSpaceOnUse"><stop offset=".5" stop-color="#006e34"/><stop offset=".5" stop-color="#0b7637"/><stop offset=".6" stop-color="#268c40"/><stop offset=".8" stop-color="#399b46"/><stop offset=".9" stop-color="#45a44a"/><stop offset="1" stop-color="#49a84c"/></radialGradient><linearGradient id="linear-gradient-15" x1="-55.3" y1="-139.4" x2="15.1" y2="-139.4" gradientTransform="translate(111.6 169) rotate(-1.7)" gradientUnits="userSpaceOnUse"><stop offset=".2" stop-color="#b19133"/><stop offset=".4" stop-color="#c2a84f"/><stop offset=".6" stop-color="#ece295"/><stop offset=".6" stop-color="#e8da8a"/><stop offset=".7" stop-color="#dfc46b"/><stop offset=".7" stop-color="#d9b556"/><stop offset=".7" stop-color="#d5ac49"/><stop offset=".8" stop-color="#d4a945"/><stop offset=".8" stop-color="#b68d41"/><stop offset="1" stop-color="#7d593b"/></linearGradient><linearGradient id="linear-gradient-16" x1="-173.6" y1="155.8" x2="-90.6" y2="155.8" gradientTransform="translate(225.2 -128.3) rotate(.7)" xlink:href="#linear-gradient-13"/><radialGradient id="radial-gradient-13" cx="-132.8" cy="204.2" fx="-132.8" fy="204.2" r="54" gradientTransform="translate(228.2 -261.1) rotate(.7) scale(1 1.7)" gradientUnits="userSpaceOnUse"><stop offset="0" stop-color="#49a84c"/><stop offset="0" stop-color="#45a44a"/><stop offset="0" stop-color="#399b46"/><stop offset=".1" stop-color="#268c40"/><stop offset=".2" stop-color="#0b7637"/><stop offset=".2" stop-color="#006e34"/><stop offset="1" stop-color="#20533d"/></radialGradient><radialGradient id="radial-gradient-14" cx="-132.8" cy="204.2" fx="-132.8" fy="204.2" r="105.7" gradientTransform="translate(228.2 -261.1) rotate(.7) scale(1 1.7)" gradientUnits="userSpaceOnUse"><stop offset="0" stop-color="#49a84c"/><stop offset="0" stop-color="#45a44a"/><stop offset=".2" stop-color="#399b46"/><stop offset=".2" stop-color="#268c40"/><stop offset=".3" stop-color="#0b7637"/><stop offset=".4" stop-color="#006e34"/><stop offset="1" stop-color="#d4601e"/></radialGradient><linearGradient id="linear-gradient-17" x1="-522.1" y1="-785.7" x2="-451.5" y2="-840.8" gradientTransform="translate(743.2 747.7) rotate(-11)" xlink:href="#linear-gradient-13"/><linearGradient id="linear-gradient-18" x1="13354.1" y1="2527.5" x2="13421.6" y2="2474.7" gradientTransform="translate(13632 1316.1) rotate(-164) scale(1 -1)" xlink:href="#linear-gradient-13"/><radialGradient id="radial-gradient-15" cx="-17.9" cy="-83.6" fx="-17.9" fy="-83.6" r="6.3" gradientTransform="translate(113.8 241.2) rotate(-1.7) scale(1 1.9)" xlink:href="#radial-gradient"/><radialGradient id="radial-gradient-16" cx="72.7" cy="67.9" fx="72.7" fy="67.9" r="6.9" gradientUnits="userSpaceOnUse"><stop offset="0" stop-color="#fbf6b6"/><stop offset=".3" stop-color="#fbf5b2"/><stop offset=".5" stop-color="#fcf5a6"/><stop offset=".8" stop-color="#fdf593"/><stop offset="1" stop-color="#fff57c"/></radialGradient><radialGradient id="radial-gradient-17" cx="108.7" cy="67.8" fx="108.7" fy="67.8" r="6.9" xlink:href="#radial-gradient-16"/><radialGradient id="radial-gradient-18" cx="90.6" cy="132.3" fx="90.6" fy="132.3" r="7.9" gradientUnits="userSpaceOnUse"><stop offset=".7" stop-color="#fff"/><stop offset=".8" stop-color="#fffefc"/><stop offset=".9" stop-color="#fffef4"/><stop offset=".9" stop-color="#fffde6"/><stop offset="1" stop-color="#fffbd3"/><stop offset="1" stop-color="#fff9ba"/><stop offset="1" stop-color="#fff9b4"/></radialGradient><linearGradient id="linear-gradient-19" x1="4246.7" y1="-2269.5" x2="4238.1" y2="-2276.7" gradientTransform="translate(2411.6 -2296.2) rotate(99.8) scale(.7 -.8)" gradientUnits="userSpaceOnUse"><stop offset="0" stop-color="#d8af41"/><stop offset=".1" stop-color="#dec05d"/><stop offset=".3" stop-color="#ece295"/><stop offset=".4" stop-color="#e8da8a"/><stop offset=".5" stop-color="#dfc46b"/><stop offset=".6" stop-color="#d9b556"/><stop offset=".7" stop-color="#d5ac49"/><stop offset=".8" stop-color="#d4a945"/><stop offset=".9" stop-color="#b68d41"/><stop offset="1" stop-color="#7d593b"/></linearGradient><linearGradient id="linear-gradient-20" x1="91.3" y1="138.4" x2="85.7" y2="133.7" gradientUnits="userSpaceOnUse"><stop offset=".1" stop-color="#7d593b"/><stop offset=".2" stop-color="#b68d41"/><stop offset=".3" stop-color="#d4a945"/><stop offset=".3" stop-color="#dcbd61"/><stop offset=".5" stop-color="#ece295"/><stop offset=".6" stop-color="#e6d27b"/><stop offset=".7" stop-color="#dfc362"/><stop offset=".8" stop-color="#dbb74f"/><stop offset=".9" stop-color="#d8b144"/><stop offset="1" stop-color="#d8af41"/></linearGradient><linearGradient id="linear-gradient-21" x1="-117.5" y1="100.3" x2="-111.8" y2="94.6" gradientTransform="translate(198.9 20.4) rotate(-5.2)" gradientUnits="userSpaceOnUse"><stop offset=".3" stop-color="#d8af41"/><stop offset=".4" stop-color="#dec05d"/><stop offset=".5" stop-color="#ece295"/><stop offset=".6" stop-color="#e8da8a"/><stop offset=".6" stop-color="#dfc46b"/><stop offset=".6" stop-color="#d9b556"/><stop offset=".6" stop-color="#d5ac49"/><stop offset=".6" stop-color="#d4a945"/><stop offset=".9" stop-color="#b78e44"/><stop offset="1" stop-color="#7d593b"/></linearGradient><linearGradient id="linear-gradient-22" x1="-337.3" y1="-298.3" x2="-331.6" y2="-302.8" gradientTransform="translate(467.6 376.2) rotate(-8.4)" xlink:href="#linear-gradient-13"/><linearGradient id="linear-gradient-23" x1="76.7" y1="128.1" x2="96.7" y2="128.1" gradientUnits="userSpaceOnUse"><stop offset="0" stop-color="#c6963e"/><stop offset=".1" stop-color="#ca9c3f"/><stop offset=".5" stop-color="#deba48"/><stop offset=".5" stop-color="#debc4c"/><stop offset=".5" stop-color="#e0c258"/><stop offset=".6" stop-color="#e4cd6c"/><stop offset=".6" stop-color="#e9db89"/><stop offset=".6" stop-color="#ece295"/><stop offset=".8" stop-color="#ebe093"/><stop offset=".9" stop-color="#e9dc8c"/><stop offset=".9" stop-color="#e7d580"/><stop offset=".9" stop-color="#e3cb6f"/><stop offset="1" stop-color="#ddbe59"/><stop offset="1" stop-color="#d8af41"/></linearGradient><linearGradient id="linear-gradient-24" x1="220" y1="195.7" x2="225.3" y2="195.7" gradientTransform="translate(-119.4 -81.7) rotate(3.8)" xlink:href="#linear-gradient-23"/><linearGradient id="linear-gradient-25" x1="58.5" y1="296.9" x2="69.1" y2="298.1" gradientTransform="translate(32.5 -210.7) rotate(2.3) scale(1.1)" gradientUnits="userSpaceOnUse"><stop offset=".3" stop-color="#d8af41"/><stop offset=".4" stop-color="#dec05d"/><stop offset=".5" stop-color="#ece295"/><stop offset=".6" stop-color="#ebe092"/><stop offset=".6" stop-color="#e9db89"/><stop offset=".7" stop-color="#e7d379"/><stop offset=".7" stop-color="#e3c863"/><stop offset=".7" stop-color="#deba48"/><stop offset=".8" stop-color="#d2a843"/><stop offset=".8" stop-color="#c6963e"/></linearGradient><linearGradient id="linear-gradient-26" x1="88.4" y1="137.6" x2="88.4" y2="127.9" gradientUnits="userSpaceOnUse"><stop offset=".3" stop-color="#7d593b"/><stop offset=".4" stop-color="#b68d41"/><stop offset=".5" stop-color="#d4a945"/><stop offset=".5" stop-color="#d8b454"/><stop offset=".6" stop-color="#e3cd77"/><stop offset=".6" stop-color="#e9dc8d"/><stop offset=".7" stop-color="#ece295"/><stop offset=".7" stop-color="#ebe092"/><stop offset=".8" stop-color="#e9da88"/><stop offset=".8" stop-color="#e5d078"/><stop offset=".8" stop-color="#dfc362"/><stop offset=".9" stop-color="#d9b145"/><stop offset=".9" stop-color="#d8af41"/></linearGradient><linearGradient id="linear-gradient-27" x1="90.8" y1="130" x2="90.8" y2="140.6" gradientUnits="userSpaceOnUse"><stop offset=".1" stop-color="#7d593b"/><stop offset=".3" stop-color="#b68d41"/><stop offset=".5" stop-color="#d4a945"/><stop offset=".5" stop-color="#d8b454"/><stop offset=".6" stop-color="#e3cd77"/><stop offset=".6" stop-color="#e9dc8d"/><stop offset=".7" stop-color="#ece295"/><stop offset=".7" stop-color="#ebe092"/><stop offset=".8" stop-color="#e9da88"/><stop offset=".8" stop-color="#e5d078"/><stop offset=".8" stop-color="#dfc362"/><stop offset=".9" stop-color="#d9b145"/><stop offset=".9" stop-color="#d8af41"/></linearGradient><linearGradient id="linear-gradient-28" x1="89.9" y1="137.6" x2="89.9" y2="127.9" xlink:href="#linear-gradient-26"/><linearGradient id="linear-gradient-29" x1="89.4" y1="125.4" x2="89.4" y2="140.8" gradientUnits="userSpaceOnUse"><stop offset=".2" stop-color="#7d593b"/><stop offset=".4" stop-color="#b68d41"/><stop offset=".5" stop-color="#d4a945"/><stop offset=".5" stop-color="#d8b454"/><stop offset=".5" stop-color="#e3cd77"/><stop offset=".6" stop-color="#e9dc8d"/><stop offset=".6" stop-color="#ece295"/><stop offset=".7" stop-color="#e7d682"/><stop offset=".8" stop-color="#dcba53"/><stop offset=".8" stop-color="#d8af41"/></linearGradient><radialGradient id="radial-gradient-19" cx="-5.7" cy="79.7" fx="239.9" fy="-10.3" r="261.6" gradientUnits="userSpaceOnUse"><stop offset="0" stop-color="#fff"/><stop offset="1" stop-color="#85dd99"/></radialGradient><linearGradient id="linear-gradient-30" x1="17.3" y1="283.9" x2="17.3" y2="212.5" gradientTransform="translate(0 -85.5) scale(1 .9)" gradientUnits="userSpaceOnUse"><stop offset=".2" stop-color="#d8af41"/><stop offset=".4" stop-color="#dec05d"/><stop offset=".6" stop-color="#ece295"/></linearGradient><linearGradient id="linear-gradient-31" x1="46.8" y1="291" x2="46.8" y2="223.3" xlink:href="#linear-gradient-30"/><linearGradient id="linear-gradient-32" x1="171.2" y1="283.7" x2="171.2" y2="216.7" xlink:href="#linear-gradient-30"/><linearGradient id="linear-gradient-33" x1="38.1" y1="66.4" x2="40.5" y2="119.2" gradientUnits="userSpaceOnUse"><stop offset="0" stop-color="#88ff90"/><stop offset=".8" stop-color="#0dff00" stop-opacity="0"/></linearGradient><linearGradient id="linear-gradient-34" x1="141.9" y1="62.1" x2="144.1" y2="109.7" xlink:href="#linear-gradient-33"/></defs><g class="cls-38"><g id="Layer_1"><rect class="cls-62" x="78.5" y="107.8" width="25.6" height="7.5" transform="translate(5.3 -4.1) rotate(2.7)"/><path class="cls-30" d="M123.4,129.1c0,14-14.9,32.9-33.3,32.9s-33.3-18.9-33.3-32.9,14.9-18,33.3-18,33.3,3.9,33.3,18Z"/><path class="cls-8" d="M58.2,134.8c3.1,11.4,16.1,24.9,31.6,24.9s28.6-13.8,31.6-25.2c-10.5,11.8-21.4,13.9-31.6,13.8-12.1-.2-23.3-4.5-31.6-13.5Z"/><path class="cls-15" d="M98.3,129.3l10.7-16h-.7c-1.8-.2-3.6,0-5.3.4-3.8,1.1-7,3.7-9.3,7.1l-2,2.9c-.2.4-.5.8-.8,1.2-.3-.4-.5-.8-.7-1.2l-1.8-3c-2.8-4.7-7.9-7.7-13.6-8.1h-1.2c0,0,10.6,17.9,10.6,17.9,1.4,2.4,4.1,3.6,6.8,3.5,0,0,0,0,0,0,0,0,0,0,0,0,2.3,0,4.7-1.1,6.1-3.2l1-1.5h0s0,0,0,0Z"/><path class="cls-32" d="M61.6,122c-1.7,2-3.4,4.2-5,6.3-1.6,2.1-3.2,4.3-4.8,6.4-1.5,2.2-3.1,4.4-4.5,6.6-.7,1.1-1.4,2.2-1.9,3.3-.6,1.1-1,2.1-1.3,2.9l-.2.5c-.7,1.9-2.8,2.9-4.7,2.2-1.8-.6-2.8-2.5-2.4-4.3.4-1.9,1-3.4,1.6-4.7.6-1.4,1.3-2.7,1.9-3.9,1.3-2.5,2.8-4.9,4.2-7.3,1.5-2.4,2.9-4.7,4.5-7,1.5-2.3,3.1-4.6,4.7-6.9,1.6-2.2,4.6-2.8,6.9-1.2,2.2,1.6,2.8,4.6,1.2,6.9,0,0-.1.2-.2.3h0Z"/><path class="cls-41" d="M45.1,132.3c2.8,2.3,7.9-.3,13.2-5.9,5.3-5.5,8.4-11.2,5.9-14.2-2.6-3.1-10-1-15.3,4.5-5.3,5.5-6.9,13-3.8,15.5Z"/><path class="cls-8" d="M45,131.7c-.5-.4-.8-.9-1.1-1.6,5.4,5.8,23.6-15.6,17-19h0c1,.2,1.8.6,2.4,1.3,2.4,2.8-.6,8.3-5.7,13.6-5.1,5.3-10,7.9-12.7,5.7Z"/><path class="cls-27" d="M117.8,122.5c1.9,1.5,3.9,3.1,5.8,4.7,1.9,1.6,3.8,3.2,5.7,4.8,1.9,1.6,3.7,3.3,5.4,5,.8.9,1.7,1.7,2.4,2.6.8.9,1.4,1.7,1.8,2.4l.3.4c1,1.6,3.1,2.1,4.7,1,1.5-.9,2-2.8,1.2-4.4-.8-1.6-1.6-2.8-2.4-3.9-.8-1.1-1.7-2.1-2.6-3.2-1.7-2-3.5-3.9-5.3-5.8-1.8-1.9-3.7-3.7-5.5-5.5-1.9-1.8-3.7-3.5-5.7-5.3-1.9-1.7-4.8-1.6-6.5.3-1.7,1.9-1.6,4.8.3,6.5,0,0,.2.1.3.2h0Z"/><path class="cls-31" d="M134.9,128.4c-2,2.7-7.2,1.3-13.2-2.6-5.9-3.9-10-8.4-8.3-11.6,1.7-3.3,8.9-3,14.8.9,5.9,3.9,8.9,10.3,6.7,13.3Z"/><path class="cls-8" d="M134.9,127.8c.4-.5.6-1,.7-1.7-3.7,6.4-24.7-9.2-19.4-13.7h0c-.9.4-1.6.9-1.9,1.7-1.6,3.1,2.3,7.4,8,11.2,5.7,3.8,10.7,5,12.7,2.5Z"/><g class="cls-34"><path class="cls-35" d="M16.1,151.9c1.9,4.5,5.5,8.7,12.1,9.9,4.7.9,12.2-5.1,15.5-10.9,3.4-6.1-5.8-7.9-10.4-12.7-4.6-4.9-20,7.2-17.3,13.7Z"/><path class="cls-52" d="M19.6,120.8c-2.9,1.5,0,7.8,3.3,14.3,3.4,6.5,8.5,10.5,11.4,8.9,2.9-1.5-1.9-6.1-5.4-12.6-3.4-6.5-6.5-12.2-9.4-10.7Z"/><path class="cls-46" d="M9,129.3c-1.7,2.8,2.3,7.6,8.5,11.4,6.3,3.8,12.4,5.2,14.1,2.4,1.7-2.8-4.4-4.4-10.6-8.2-6.3-3.8-10.3-8.3-12-5.5Z"/><path class="cls-44" d="M13.3,141.9c-1.3,2.2-.4,3.6,3,5.7,3.4,2,6.3,2.1,7.6-.1,1.3-2.2-1.2-4-4.6-6-3.4-2-4.7-1.7-6,.5Z"/><path class="cls-28" d="M12,147.6c-1.2,1.8-.5,3.2,2.4,5.1,2.9,1.9,5.4,2.1,6.7.2,1.2-1.8-.9-3.6-3.8-5.5-2.9-1.9-4.1-1.7-5.3.2Z"/><path class="cls-40" d="M47.9,147.9c-6,1.8-10.8,16.4-17.7,2.1-3.3-6.7,1.5-11.4,6.7-8.8,3.2,1.6,8.4.8,12-2.2,3.7-3.1,6.5-3.3,7.4-.5.9,2.9-2.4,7.4-8.3,9.3Z"/></g><g class="cls-16"><path class="cls-47" d="M147.5,136.2c0,1.1.1,4.8,3.9,4.1,5.8-1.1-6.1,19.2-8.1,17.4-8.1-7.2-1.7-14.8-2.3-24.6-.2-2.9-1.3-8,1.9-7.8,3.2.3,5.3,4.2,4.7,10.9Z"/><path class="cls-19" d="M172.3,128.3c2.1,2.5-3,7.2-8.6,11.9-5.7,4.6-11.9,6.3-14,3.8-1.5-1.8-1.4-2.9,1.7-3.7,1.8-.5,6.5-4.4,8.1-5.8,5.7-4.6,10.8-8.7,12.8-6.2Z"/><path class="cls-48" d="M178.9,140.4c.5,3.2-5.1,6.1-12.3,7.1-7.2,1.1-13.4,0-13.9-3.3-.5-3.2,5.8-2.4,13-3.4,7.2-1.1,12.7-3.6,13.2-.4Z"/><path class="cls-20" d="M163.3,157.1c-3.5,3.4-8.4,6.7-13.8,5.2-4.7-1.3-8-5.3-8.7-11.9-.8-6.9,6.7-9.3,13.4-8.7,6.7.6,14.1,10.6,9.1,15.4Z"/><path class="cls-56" d="M170.1,150.1c.4,2.5-.9,3.6-4.8,4.2-3.9.7-6.7-.3-7.1-2.8-.4-2.5,2.5-3.3,6.5-4,3.9-.7,5,0,5.5,2.6Z"/><path class="cls-59" d="M169.4,155.8c.4,2.2-.7,3.1-4.1,3.8-3.4.7-5.8,0-6.3-2.2-.4-2.2,2.1-3,5.5-3.7,3.4-.7,4.4,0,4.8,2.1Z"/></g><path class="cls-9" d="M49.8,23.1c.7-.2,2.2-.2,2.9-.1-.5.4-1.4,1.3-1.8,1.8-.3-.3-1-1.2-1.1-1.7h0Z"/><path class="cls-14" d="M130.7,24c.9,0,1.9,0,2.8.2-.1.5-.8,1.4-1.1,1.7-.5-.6-1.1-1.3-1.7-1.9h0Z"/><path class="cls-13" d="M144,46.4l2.1.8c1.2.5,2.3,1.2,3.2,2.1,1.8,1.8,3,4.3,3,7v15.3c.1,2.7-.9,5.2-2.7,7-.8.8-1.7,1.4-2.7,1.9h0s0,0,0,0c-.6.3-1.3.6-1.9.7l-.9-34.8Z"/><path class="cls-10" d="M144.3,46.4l2.1.8c1.2.5,2.3,1.2,3.1,2.1,1.8,1.8,2.9,4.3,2.9,7v15.3c0,2.7-1.1,5.2-2.9,7-.8.8-1.7,1.4-2.7,1.9h0s0,0,0,0c-.6.3-1.3.5-1.9.7l-.6-34.8Z"/><path class="cls-11" d="M149.2,49.2c0-.1-.1-.3-.2-.4.2.1.3.3.4.4.1.1.3.3.4.5.7,1.7,1.2,4,1.1,6.5l-.2,15.3c0,2.7-.6,5.2-1.5,7,0,.2-.2.3-.2.4-.3.3-.6.5-1,.7.2-.4.4-.8.6-1.2.8-1.8,1.2-4.3,1.3-7.1l.3-15.3c0-2.7-.3-5.2-1-6.9Z"/><path class="cls-12" d="M38.5,45.1l-2.1.7c-1.2.5-2.3,1.2-3.2,2-1.9,1.8-3,4.2-3.1,6.9l-.4,15.3c0,2.7,1,5.2,2.7,7.1.8.8,1.6,1.5,2.6,2h0s0,0,0,0c.6.3,1.3.6,1.9.8l1.6-34.8Z"/><path class="cls-11" d="M33.5,47.8c0-.1.1-.3.2-.4-.2.1-.3.3-.5.4-.2.1-.3.3-.4.4-.8,1.7-1.3,4-1.3,6.5l-.2,15.3c0,2.7.5,5.2,1.3,7.1,0,.2.1.3.2.4.3.3.6.5.9.8-.2-.4-.4-.8-.6-1.2-.7-1.9-1.1-4.4-1.1-7.1v-15.3c.2-2.7.6-5.2,1.4-6.9Z"/><path class="cls-39" d="M146.2,61.4c-1,34.9-2.7,52-56.7,50.5-48.5-1.4-54.9-15.1-53.8-53.6.8-28.8,28.9-51.3,56.7-50.5,29.6.8,54.6,24.9,53.8,53.6Z"/><g class="cls-33"><path class="cls-50" d="M91.6,22.5c-7.6-.3-13.4-6.6-13.1-14l.4-8.3h.7c0-.1-.4,8.4-.4,8.4-.3,7,5.3,13,12.5,13.3,7.2.3,13.2-5.2,13.5-12.2l.4-8.5.7.2-.4,8.3c-.3,7.4-6.7,13.2-14.3,12.9Z"/></g><path class="cls-6" d="M91.5,38.6c-18.8-.3-28.1-14.6-39.6-14.9.2-.2.5-.5.7-.7,11.2.8,20.5,14.6,38.9,14.9,16.4.2,29.6-14.1,39.3-13.9.3,0,.4.4.7.7-11.5,0-21.2,14.1-40,13.9h0Z"/><path class="cls-60" d="M91.6,31.4c14.3,0,11.9-13.1,27.7-17.2,5.1,2.6,9.6,6,13.4,9.8-11.7-1.2-23.6,14.3-41.1,14-20-.2-29.3-16.5-41.9-15,4-3.8,8.7-7.1,14-9.7,14.9,3.6,14.9,17.8,27.8,18h0Z"/><path class="cls-61" d="M132.9,50.1c-2.1-7.5-7.1-13.5-20-2.2-6,5.3-14.3,6.5-21.4,6.6-7.1-.2-15.3-1.7-21.2-7.1-12.6-11.6-17.8-5.7-20.1,1.7-2.3,7.4-4.2,21.3-1.5,32.8,3.2,13.2,15.7,25.8,42.2,26.1,26.4.3,39.3-11.9,42.8-25,3-11.4,1.4-25.3-.7-32.8Z"/><path class="cls-22" d="M90.8,106.8c-12.1-.2-21.9-2.8-29.2-8-6.1-4.3-10.3-10.3-11.9-17.2-2.6-10.7-1-24.2,1.5-32.2,1.6-5.1,3.9-7.5,7.1-7.5,2.9,0,6.7,2.1,11.2,6.2,5.1,4.7,12.3,7.1,21.9,7.4h0c9.7,0,16.9-2.3,22.1-6.9,4.6-4,8.4-6,11.3-6,3.2,0,5.4,2.5,6.9,7.7,2.3,8.1,3.5,21.6.7,32.2-1.8,6.9-6.1,12.7-12.3,16.9-7.4,5-17.3,7.4-29.4,7.3Z"/><path class="cls-45" d="M107.5,49.5c5.3-2.9,7.3-5.6,7.9-6.8,0,0,0-.2.1-.2,0,0,0,0,0-.1,0,0,0,0,0-.1,0,0,0-.1,0-.1h0c.3-.7.3-1.4.2-2.2-.4-2.2-2.5-3.6-4.7-3.2-2.2.4-3.6,2.5-3.2,4.7,0,.4.2.7.4,1.1-3.3,7.6-12.6,9.6-12.6,9.6,0,0,4.8,1.2,11.8-2.6Z"/><path class="cls-65" d="M73.8,48.2c-4.8-3.2-6.5-6-7-7.2,0,0,0-.2,0-.2,0,0,0,0,0-.1,0,0,0,0,0-.1,0,0,0-.1,0-.1h0c-.2-.7-.2-1.4,0-2.1.6-2,2.7-3.2,4.8-2.6,2,.6,3.2,2.7,2.6,4.8-.1.4-.3.7-.4,1,2.5,7.5,11.3,10.2,11.3,10.2,0,0-4.7.7-11-3.5Z"/><path class="cls-54" d="M86.4,83.2c-.8,0-1.3.8-1.1,1.5.7,2.6,3.2,4.4,6,4.3,2.8,0,5.1-2.1,5.7-4.7.2-.8-.4-1.5-1.2-1.5l-9.3.3Z"/><ellipse class="cls-3" cx="72.7" cy="67.9" rx="5.3" ry="8.1"/><ellipse class="cls-5" cx="108.7" cy="67.8" rx="5.3" ry="8.1"/><path class="cls-24" d="M98.1,132.3c0,4.1-3.3,7.4-7.4,7.4s-7.4-3.3-7.4-7.4,3.3-7.4,7.4-7.4,7.4,3.3,7.4,7.4Z"/><path class="cls-23" d="M95.8,130.2c1.2,2.9-.2,6.2-3.1,7.3-2.9,1.2-6.2-.2-7.3-3.1-1.2-2.9.2-6.1,3.1-7.3,2.9-1.2,6.2.2,7.3,3.1Z"/><path class="cls-53" d="M96.7,132.3c0,3.3-2.7,6-6,6s-6-2.7-6-6,.6-3.1,1.7-4.2c.3-.3.7-.6,1-.9.9-.6,2.1-1,3.3-1,3.3,0,6,2.7,6,6Z"/><path class="cls-49" d="M88.2,130.4s-.7.5-.8.9c0,.5,0,.7,0,.7,0,0,0-.4.3-.3.1,0,0,.4,0,.4,0,0-.3.8.3,1.3,0,0,0-.5,0-.5.2,0,.3.3.5.6s.6.5.7.5c0,0-.5-.5.3-.4s1.4.5,1.4.5c0,0-.3-.3-1.3-.7-.8-.3-1.1-.5-1.4-1-.7-1-.2-2.1-.2-2.1Z"/><path class="cls-43" d="M90.8,136.7c0,0-1.1.4-1.3.2s.3-.1.3-.1c0,0,0-.2-.4-.1-.2,0-.2,0-.5,0s-.5,0-.7-.1,0,0,0,0c-.2-.2.3-.1.3-.1,0-.2-.1-.2-.2-.2-.3-.1-.8,0-1-.2-.1-.1.1,0,.2,0,0,0,0-.1-.3-.3-.2,0-.6-.5-.6-.9,0,0-.1.7.6,1.3,1.2,1.1,2.5,1,2.6.9.4,0,1-.4,1-.4Z"/><circle class="cls-55" cx="93.2" cy="128.5" r=".4"/><path class="cls-36" d="M92.8,128c.4-.2.6-.4.7-.5,0,0,0,0,0,0,0,0,0,0,0,0,0,0,0,0,0,0,0,0,0,0,0,0h0c0,0,0-.1,0-.2,0-.2-.2-.3-.4-.3s-.3.2-.3.4,0,0,0,0c-.3.6-1.1.7-1.1.7,0,0,.4.1,1-.2Z"/><path class="cls-63" d="M91.9,127.7c0,.1-.1.2-.1,0,0-.1-.1-.3-.3-.3-.4,0-.6.3-.9.5-.2.2-1.1.9-2.4.8-.9,0-1.5-.5-1.8-.8.3-.3.7-.6,1.1-.9,1,1,2.6.8,3.2.3.3-.2.6-.4.9-.4.3,0,.5.3.4.5Z"/><path class="cls-37" d="M91.6,128.2c0,0-.1-.3-.4-.3s-.5.3-.5.5c0,.1,0,.1,0,0,0,0,.1-.1.2-.1,0,0,.2,0,.3-.1.2,0,.3,0,.3,0Z"/><path class="cls-17" d="M89.8,131.1c.3.4,1,.7,1.5.7,0,0,0,0,0,0-.2,0-.9-.4-.7-1.4.2-1.2,2-1,2-1,0,0,.4,0,.7.2.3.2.7,0,.8-.2,0-.2,0-.3,0-.3,0,0,0,0,0,0,0,0-.3.2-.8,0-.8-.1-1.7-.3-2.6,0-.9.4-1.3,1.2-.8,1.9Z"/><path class="cls-25" d="M89,129.6c-.3.1-.9.3-1.2.4-.9,0-1.1-.7-1.1-.8,0,0,0,0,0,0,.5.2,1,.2,1.6.2s1.3-.1,1.9-.3c0,0-.8.4-1.1.6Z"/><path class="cls-21" d="M93.1,133.7c-1-1-2.3-1.2-3.2-1.8.6.5,1.5.9,2.1,1.3.8.5,1.5,1.5,1.1,2.8-.4,1.3-1.9,2.1-3.4,2-.8,0-1.5-.3-1.9-.6.3.3.7.5,1.2.6,1.7.5,3.2.3,4.1-.5.9-.9,1.1-2.7,0-3.8Z"/><path class="cls-7" d="M89.8,132.6c-.7-.6-1.2-1.1-.9-2.1.2-.7.7-1.2,1.1-1.4-.3.1-1.3.6-1.6,1.3-.4.9-.3,1.7.5,2.5.7.8,2.4,1,2.7,2.2-.1-1-1.2-1.9-1.8-2.4Z"/><path class="cls-42" d="M93.1,136.1c.4-1.3-.3-2.3-1.1-2.8-.6-.4-1.5-.8-2.1-1.3,0,0,0,0-.1,0-.8-.7-.7-1.4-.5-1.9.2-.5.8-.9.8-.9,0,0,0,0-.1,0-.4.3-1,.7-1.1,1.4-.2,1,.2,1.6.9,2.1.6.5,1.7,1.4,1.8,2.4,0,0,0,0,0,.1.2,1.3-1,2.3-2.2,2.2-1.3-.1-2.1-.9-2.4-1.8-.4-.9,0-2,0-2,0,0-.3,0-.5.3s-.2.7-.3,1-.3.6-.5.6c.3,0,.7,0,.7-.2.1.5.5,1.4,1.3,2,.4.3,1.1.6,1.9.6,1.6,0,3-.7,3.4-2Z"/><g class="cls-4"><path class="cls-51" d="M185.4,180.4C125.6,203,59.7,203,0,180.4v-82.1c59.7,22.6,125.6,22.6,185.4,0v82.1Z"/><path class="cls-23" d="M0,98.4c59.6,21.8,126.8,21.6,186.1-1,0,0,0,1,0,1l-.3,41c-.1,10.2-.3,30.8-.5,41,0,0-.2-20.5-.2-20.5-.2-13-.4-48.1-.5-61.5,0,0,1,.7,1,.7-59.1,22.8-126.7,22.7-185.6-.7h0Z"/></g><path class="cls-29" d="M14.1,178.5c2.1.6,4.2,1.3,6.3,1.9v-66.9h-6.3v65Z"/><path class="cls-64" d="M43.7,185.9c2.1.4,4.2.8,6.3,1.1v-63.4h-6.3v62.3Z"/><path class="cls-57" d="M27.3,182.3c2.1.5,4.2,1,6.3,1.5v-43h-6.3v41.4Z"/><path class="cls-58" d="M168.1,180.2c2.1-.6,4.2-1.2,6.3-1.9v-60.9h-6.3v62.8Z"/><path class="cls-57" d="M151.4,184.4c2.1-.5,4.2-.9,6.3-1.4v-50.3h-6.3v51.7Z"/><path class="cls-18" d="M141,186.5c2.1-.4,4.2-.8,6.3-1.2v-67.2h-6.3v68.4Z"/><path class="cls-18" d="M114.9,189.8c2.1-.2,4.2-.3,6.3-.6v-18.5h-6.3v19Z"/><path class="cls-18" d="M55.5,187.9c2.1.3,4.2.6,6.3.8v-11.7h-6.3v10.9Z"/><path class="cls-2" d="M77.8,70.4l-10.4-2.4L0,98.4s4.7,19.8,79.6,22.1l-1.8-50.1Z"/><path class="cls-1" d="M102.6,115.4c49-1.4,82.8-17,82.8-17l-71.5-31.4-10.5,2.3-.8,46.1Z"/></g></g></svg>